<svg width="21" height="21" viewBox="0 0 21 21" fill="none" xmlns="http://www.w3.org/2000/svg">
<path d="M10.6244 13.1624C12.0393 13.1624 13.1863 12.0154 13.1863 10.6005C13.1863 9.1856 12.0393 8.0386 10.6244 8.0386C9.2095 8.0386 8.0625 9.1856 8.0625 10.6005C8.0625 12.0154 9.2095 13.1624 10.6244 13.1624Z" stroke="#898989" stroke-width="1.02476" stroke-miterlimit="10" stroke-linecap="round" stroke-linejoin="round"/>
<path d="M2.08472 11.352V9.84899C2.08472 8.96087 2.81059 8.22646 3.70725 8.22646C5.25292 8.22646 5.88485 7.13339 5.10775 5.79267C4.66368 5.0241 4.92841 4.02497 5.70552 3.58091L7.18288 2.73548C7.85751 2.33412 8.72855 2.57323 9.12991 3.24786L9.22385 3.41011C9.99241 4.75083 11.2563 4.75083 12.0334 3.41011L12.1273 3.24786C12.5287 2.57323 13.3997 2.33412 14.0744 2.73548L15.5517 3.58091C16.3288 4.02497 16.5935 5.0241 16.1495 5.79267C15.3724 7.13339 16.0043 8.22646 17.55 8.22646C18.4381 8.22646 19.1725 8.95233 19.1725 9.84899V11.352C19.1725 12.2401 18.4466 12.9745 17.55 12.9745C16.0043 12.9745 15.3724 14.0676 16.1495 15.4083C16.5935 16.1854 16.3288 17.176 15.5517 17.6201L14.0744 18.4655C13.3997 18.8668 12.5287 18.6277 12.1273 17.9531L12.0334 17.7908C11.2648 16.4501 10.001 16.4501 9.22385 17.7908L9.12991 17.9531C8.72855 18.6277 7.85751 18.8668 7.18288 18.4655L5.70552 17.6201C4.92841 17.176 4.66368 16.1769 5.10775 15.4083C5.88485 14.0676 5.25292 12.9745 3.70725 12.9745C2.81059 12.9745 2.08472 12.2401 2.08472 11.352Z" stroke="#898989" stroke-width="1.02476" stroke-miterlimit="10" stroke-linecap="round" stroke-linejoin="round"/>
</svg>
