<svg width="21" height="22" viewBox="0 0 21 22" fill="none" xmlns="http://www.w3.org/2000/svg">
<path d="M19.1641 5.73302V7.79961C19.1641 9.14887 18.3101 10.0028 16.9608 10.0028H14.0403V4.03363C14.0403 3.08574 14.8174 2.31717 15.7653 2.31717C16.6961 2.32571 17.5501 2.70145 18.1649 3.31631C18.7798 3.9397 19.1641 4.79366 19.1641 5.73302Z" stroke="#000000" stroke-width="1.02476" stroke-miterlimit="10" stroke-linecap="round" stroke-linejoin="round"/>
<path d="M2.08472 6.58698V18.5425C2.08472 19.2513 2.88742 19.6526 3.45104 19.2256L4.91133 18.1326C5.25292 17.8764 5.73114 17.9105 6.03857 18.218L7.45612 19.6441C7.78917 19.9771 8.33574 19.9771 8.66879 19.6441L10.1034 18.2094C10.4023 17.9105 10.8805 17.8764 11.2136 18.1326L12.6739 19.2256C13.2375 19.6441 14.0402 19.2427 14.0402 18.5425V4.0251C14.0402 3.08574 14.8088 2.31717 15.7481 2.31717H6.35453H5.50057C2.93868 2.31717 2.08472 3.84576 2.08472 5.73302V6.58698Z" stroke="#000000" stroke-width="1.02476" stroke-miterlimit="10" stroke-linecap="round" stroke-linejoin="round"/>
<path d="M5.50061 8.29492H10.6244" stroke="#000000" stroke-width="1.02476" stroke-linecap="round" stroke-linejoin="round"/>
<path d="M6.14111 11.7108H9.98395" stroke="#000000" stroke-width="1.02476" stroke-linecap="round" stroke-linejoin="round"/>
</svg>
