<svg width="26" height="25" viewBox="0 0 26 25" fill="none" xmlns="http://www.w3.org/2000/svg">
<path d="M13.293 3.14467C9.90106 3.14467 7.14447 5.90126 7.14447 9.2932V12.2547C7.14447 12.8798 6.87803 13.8329 6.56036 14.3657L5.38189 16.323C4.65431 17.5322 5.15644 18.8747 6.48862 19.3256C10.9053 20.8012 15.6704 20.8012 20.0871 19.3256C21.3271 18.9157 21.8702 17.4503 21.1939 16.323L20.0154 14.3657C19.708 13.8329 19.4415 12.8798 19.4415 12.2547V9.2932C19.4415 5.91151 16.6747 3.14467 13.293 3.14467Z" stroke="white" stroke-width="1.53713" stroke-miterlimit="10" stroke-linecap="round"/>
<path d="M15.1886 3.44184C14.8709 3.34961 14.543 3.27788 14.2048 3.23689C13.221 3.11392 12.2783 3.18565 11.397 3.44184C11.6942 2.68352 12.432 2.15065 13.2928 2.15065C14.1536 2.15065 14.8914 2.68352 15.1886 3.44184Z" stroke="white" stroke-width="1.53713" stroke-miterlimit="10" stroke-linecap="round" stroke-linejoin="round"/>
<path d="M16.3673 19.6945C16.3673 21.3853 14.9839 22.7687 13.293 22.7687C12.4527 22.7687 11.6739 22.4203 11.1205 21.8669C10.5672 21.3136 10.2188 20.5348 10.2188 19.6945" stroke="white" stroke-width="1.53713" stroke-miterlimit="10"/>
</svg>
